PathFileType	4	(X/Y/Z)	Walking04.trc	
DataRate	CameraRate	NumFrames	NumMarkers	Units	OrigDataRate	OrigDataStartFrame	OrigNumFrames	
100.00	100.00	8	19	mm	100.00	398	98	
Frame#	Time	RPSI			LPSI			RASI			LASI			RTHI			RKNE			RHFB			RTUB			RSHN			RANK			RLCA			RSTL			RPCA			RCPG			RHEE			RP5M			RP1M			RD5M			RTOE			
		X1	Y1	Z1	X2	Y2	Z2	X3	Y3	Z3	X4	Y4	Z4	X5	Y5	Z5	X6	Y6	Z6	X7	Y7	Z7	X8	Y8	Z8	X9	Y9	Z9	X10	Y10	Z10	X11	Y11	Z11	X12	Y12	Z12	X13	Y13	Z13	X14	Y14	Z14	X15	Y15	Z15	X16	Y16	Z16	X17	Y17	Z17	X18	Y18	Z18	X19	Y19	Z19	

50	0.490	-34.75013	893.65570	-84.69637	-30.45194	888.51727	-176.79933	140.53839	842.42346	26.20717	172.90784	836.80322	-213.40596	-34.46342	560.88428	39.08513	-81.56422	427.43851	13.99450	-107.60059	392.99945	11.38364	-56.49419	350.74225	-35.45510	-108.28075	295.53284	-45.72791	-324.17767	138.15744	-30.57931	-346.19360	126.42093	-37.34237	-330.93750	120.42651	-101.82502	-348.64670	158.92969	-76.07275	-377.16620	163.00038	-79.16650	-376.74774	129.73781	-84.06118	-292.92957	42.26559	-8.43945	-239.13431	74.74392	-80.06202	-266.68539	23.95387	-0.62757	-221.84218	32.47071	-34.72908 
51	0.500	-18.40663	893.10516	-84.61977	-14.59929	888.59558	-176.99509	158.30397	841.55170	24.01278	189.22591	837.62177	-215.21786	-14.61730	558.54950	38.92251	-61.01946	425.30402	15.55129	-87.92944	391.62415	13.57834	-37.26862	347.69125	-33.01698	-91.43486	294.15369	-43.51810	-312.95020	145.44455	-29.13368	-335.39697	134.67766	-36.66272	-320.07944	128.78973	-100.22160	-336.10037	168.04875	-74.28950	-364.13522	174.15012	-76.78014	-365.25220	141.12877	-82.73506	-290.08615	46.56032	-7.34075	-234.15428	75.28821	-79.80679	-264.41724	26.71459	-0.62031	-220.26982	32.49020	-34.99873 
52	0.510	-2.53222	892.76080	-84.32616	1.15126	889.37457	-177.13773	175.93089	840.97021	21.25871	205.29201	839.24817	-217.32545	6.53536	556.05817	38.86312	-38.70573	423.14246	17.84996	-66.43339	390.22095	16.48227	-16.14416	344.45132	-29.80847	-72.59474	292.76443	-40.73583	-299.87909	152.99242	-27.40236	-322.25934	143.58380	-35.14867	-306.61411	137.52608	-98.45425	-321.22598	177.53174	-72.40181	-348.78729	185.09915	-75.01579	-351.20148	153.14163	-82.13569	-286.31775	51.73744	-5.65406	-227.52484	75.79042	-78.17312	-261.63937	29.85097	-0.49718	-218.43398	32.47147	-35.41441 
53	0.520	13.68992	892.27588	-83.77051	16.91901	890.33948	-177.06277	193.51935	840.80951	18.07470	221.33261	841.68622	-219.69954	28.70109	553.41968	39.30222	-14.68502	420.82526	20.80327	-43.27304	388.55331	19.70797	6.75664	341.00507	-25.72611	-51.77423	291.17493	-37.18768	-284.90900	161.42004	-25.39225	-308.47180	154.59868	-33.19190	-291.53574	147.25789	-96.52735	-304.56168	187.76332	-70.71008	-330.97025	196.91959	-73.86645	-335.24789	166.14035	-81.88870	-278.98657	59.17027	-5.57149	-219.87386	77.13786	-76.81653	-258.92914	33.78752	-0.26050	-216.35919	33.03930	-35.69811 
54	0.530	29.82040	891.91235	-83.01575	32.58171	891.17743	-176.66693	211.00795	841.02142	14.54121	237.07141	844.62067	-222.38870	51.61467	550.68781	40.34879	10.60203	418.01208	24.04796	-18.45970	386.52139	23.20565	30.90267	337.50662	-21.13075	-29.68291	289.57523	-32.88532	-268.92084	171.48900	-23.30795	-293.87195	167.39148	-30.69675	-275.53522	158.28101	-94.49659	-286.33499	199.36224	-68.89169	-310.87799	210.28906	-72.75857	-317.85297	180.21425	-80.37003	-272.51132	67.36938	-5.31095	-211.26564	81.13242	-75.15398	-255.58350	39.43019	0.48661	-213.10457	35.53574	-35.20825 
55	0.540	45.67426	891.76270	-82.25328	47.89874	892.19794	-176.14868	228.03250	841.37378	10.84064	252.27437	847.60388	-225.30420	75.35368	547.90381	41.81088	36.96818	414.80811	27.42868	7.79489	384.10379	27.05666	55.93692	334.45895	-16.42653	-7.05746	287.97800	-28.80372	-252.32318	181.99077	-21.38637	-275.24850	178.26607	-29.01847	-257.92209	170.10555	-92.46323	-266.02084	211.65059	-66.40684	-289.31226	224.19087	-70.20652	-298.31122	195.20676	-77.89849	-263.15479	78.55770	-3.88342	-200.85431	87.60436	-73.29309	-249.73085	47.34002	1.94232	-207.92065	39.93032	-33.61856 
56	0.550	61.27076	891.73065	-81.54919	62.98158	893.56500	-175.54236	244.71976	841.78284	7.20812	267.00082	850.44250	-228.14191	99.68100	544.98267	43.26981	64.06386	411.44446	30.86381	35.21518	381.67047	31.15196	81.97483	332.10767	-12.20630	16.44402	286.81091	-25.34801	-233.52657	192.97070	-20.32987	-255.93883	191.22505	-28.26091	-238.06953	181.95958	-90.86676	-243.26199	223.38579	-64.35186	-266.03192	237.85542	-67.39244	-276.07434	210.26530	-74.84296	-251.43561	90.62795	-2.56010	-187.95866	94.67803	-71.38755	-241.30151	57.39932	2.83852	-200.74541	45.07069	-31.35170 
57	0.560	76.67046	891.77380	-80.93564	78.41654	894.95465	-174.99536	261.24261	842.50330	3.82133	281.41824	853.05499	-230.94893	124.46773	542.42505	44.43648	91.72671	408.37881	34.52274	63.30079	379.50708	35.37522	108.72475	330.43683	-8.69073	41.32964	286.53577	-21.97335	-211.24036	202.76353	-19.65312	-233.86705	203.14340	-27.28499	-215.69814	193.08878	-89.83435	-217.70233	234.13138	-62.47750	-239.43260	250.06256	-66.11005	-251.26642	224.33224	-73.08564	-237.29855	102.36756	-1.89877	-172.43388	101.55742	-69.49018	-229.84433	68.84038	3.15621	-191.40242	51.13018	-29.52719 
